<svg xmlns="http://www.w3.org/2000/svg" width="256" height="256"><path fill-opacity=".016" d="M0 128.004v128.004l128.25-.254 128.25-.254.254-127.75L257.008 0H0v128.004m.485.496c0 70.4.119 99.053.265 63.672.146-35.38.146-92.98 0-128C.604 29.153.485 58.1.485 128.5" fill="#1976D2" fill-rule="evenodd"/><path fill-opacity=".055" d="M110.5 11.109C67.882 17.25 29.957 49.181 16.078 90.607c-13.887 41.452-3.806 86.619 26.404 118.302 36.506 38.284 91.659 48.056 138.518 24.542C239.29 204.2 262.738 133.364 233.451 75c-16.8-33.478-48.553-56.95-85.836-63.452-9.475-1.652-27.239-1.863-37.115-.439M129.252 59.5c.011 2.2.216 2.982.455 1.738.239-1.244.23-3.044-.02-4s-.446.062-.435 2.262m-11.907-.957c-.326.849-.369 1.767-.096 2.04.274.273.737-.422 1.03-1.543.624-2.383-.069-2.751-.934-.497m28.627.509c-.604 1.129-.897 2.817-.651 3.75.33 1.255.477 1.129.563-.481.064-1.198.823-2.885 1.687-3.75.865-.864 1.106-1.571.536-1.571-.57 0-1.531.924-2.135 2.052m7.128-.347c.729 1.212 1.54 1.989 1.803 1.726.263-.263-.333-1.255-1.324-2.205-1.722-1.649-1.744-1.628-.479.479m-43.1-.037c.825.347 1.872 1.127 2.326 1.732.531.707.68.565.417-.4-.225-.825-1.271-1.605-2.326-1.732-1.347-.164-1.471-.045-.417.4m-3.175 3.006c.426 2.093.678 2.345.969.97.217-1.021-.043-2.293-.576-2.826-.626-.626-.766.031-.393 1.856m17.37.826c.02 1.65.244 2.204.498 1.231.254-.973.237-2.323-.037-3-.274-.677-.481.119-.461 1.769m9.884-.917c.048 1.165.285 1.402.604.605.289-.722.253-1.585-.079-1.917-.332-.332-.568.258-.525 1.312m-36.62 1.484c-.363.586-.445 1.281-.183 1.543s.743-.218 1.069-1.067c.676-1.762.1-2.072-.886-.476m4.105.226c.376.986.935 1.541 1.243 1.233.308-.307.001-1.114-.683-1.793-.988-.98-1.102-.865-.56.56m58.249 1.39c.721.289 1.584.253 1.916-.079.332-.332-.258-.568-1.312-.525-1.165.048-1.402.285-.604.604m-41.08 1.441c.679.684 1.486.991 1.793.683.308-.308-.247-.867-1.233-1.243-1.425-.542-1.54-.428-.56.56M150 66c-2.327.745-2.349.808-.309.9 1.205.055 2.469-.35 2.809-.9.34-.55.479-.955.309-.9A2527 2527 0 0 1 150 66m-58.03 1.944c.573 1.07 1.535 2.25 2.139 2.623.604.374.325-.501-.62-1.944-2.002-3.055-3.038-3.518-1.519-.679m69.984 1.142c-.614 1.147-.928 2.274-.697 2.504.23.23.932-.708 1.559-2.086 1.378-3.024.707-3.35-.862-.418M82 70.053c0 .579 1.125 2.709 2.5 4.732 1.375 2.024 2.49 3.237 2.478 2.697-.012-.54-.902-2.107-1.978-3.482-2.883-3.686-2.424-4.417 1.25-1.985l3.25 2.15-3-2.577c-3.226-2.772-4.5-3.207-4.5-1.535m84.606 1.795-1.894 2.652 2.338-2.222c1.287-1.222 2.139-2.416 1.894-2.652-.244-.237-1.296.763-2.338 2.222M172.5 76c-.34.55-.168 1 .382 1s1.278-.45 1.618-1c.34-.55.168-1-.382-1s-1.278.45-1.618 1m-97.469 4.674c.036.929 4.939 4.716 5.406 4.174.165-.191-.991-1.395-2.569-2.674-1.577-1.279-2.854-1.954-2.837-1.5M71 84.711c0 .574.787 1.662 1.75 2.417 1.619 1.269 1.64 1.222.283-.628-.807-1.1-1.594-2.187-1.75-2.417-.156-.229-.283.054-.283.628m112.757 3.539c-1.295 1.237-1.649 1.711-.785 1.053.863-.659 2.685-1.643 4.049-2.187 1.648-.658 1.911-1.01.785-1.053-.932-.034-2.754.95-4.049 2.187m-117.25 2.739c-.343.555.035.74.863.423.811-.312 2.521-.057 3.802.566 2.221 1.08 2.238 1.061.387-.423-2.224-1.781-4.167-1.999-5.052-.566m58.015 4.338c-1.152 1.757-2.219 2.224-4.362 1.91-4.998-.734-6.16 1.614-6.16 12.449v9.544l-2.581-1.691c-5.037-3.3-5.419-2.157-5.419 16.195 0 14.419.262 17.291 1.849 20.282 2.148 4.045 7.812 7.485 13.97 8.483l4.32.7-3.626-4.75c-4.382-5.741-7.513-11.689-7.513-14.274 0-2.599 3.751-7.175 5.881-7.175 2.968 0 5.619 2.678 5.619 5.675 0 1.844.521 2.825 1.5 2.825.995 0 1.5-.995 1.5-2.956 0-2.181.719-3.362 2.741-4.5 3.185-1.793 5.385-.884 7.693 3.178 1.263 2.223 1.233 3.048-.247 6.901-.925 2.408-3.519 6.796-5.765 9.753l-4.083 5.377 3.784-.71c5.997-1.125 10.982-4.17 13.526-8.262 2.253-3.624 2.364-4.7 2.669-25.927.31-21.649.27-22.179-1.815-23.639-1.173-.822-3.003-1.266-4.068-.988-1.448.379-1.935-.009-1.935-1.539 0-3.215-2.882-5.462-6.164-4.805-2.064.413-2.836.175-2.836-.873 0-1.578-2.978-3.51-5.411-3.51-.849 0-2.229 1.047-3.067 2.327m.8-.077c-.437.688-.649 6.31-.47 12.495.179 6.185-.052 13.16-.513 15.5-.665 3.374-.943 1.252-1.339-10.245-.499-14.457-.507-14.501-2.944-14.845-4.363-.616-5.043 1.839-5.203 18.786-.099 10.457-.351 13.639-.77 9.704-.476-4.467-1.179-6.304-2.964-7.75-1.287-1.042-2.741-1.895-3.23-1.895-.489 0-.888 7.313-.887 16.25.001 17.745.83 21.154 6.075 24.995 2.542 1.861 10.313 4.188 9.725 2.911-.166-.361-2.027-3.204-4.135-6.318-5.104-7.539-5.851-12.745-2.334-16.262 3.111-3.111 5.538-3.252 9.004-.525l2.607 2.05 3.033-2.242c2.472-1.828 3.539-2.064 5.775-1.277 3.5 1.231 5.628 5.581 4.824 9.865-.338 1.802-2.429 5.866-4.646 9.031-2.217 3.165-3.896 5.887-3.73 6.049.956.936 8.716-2.905 11.001-5.446 4.212-4.683 4.867-9.094 4.57-30.767L148.5 105.5h-6l-.284 10.75c-.182 6.886-.674 10.75-1.369 10.75-.746 0-.948-4.039-.647-12.948.455-13.454-.052-16.052-3.127-16.052-3.365 0-4.007 2.385-4.324 16.066l-.312 13.434-.219-15.55c-.147-10.496-.608-15.94-1.418-16.75-1.563-1.563-4.468-1.536-5.478.05m64.404 1.334c-1.525.828-3.325 1.194-4 .814-.923-.52-.945-.387-.092.539.89.966 1.963.793 5-.809 2.126-1.122 3.416-2.041 2.866-2.044-.55-.002-2.248.673-3.774 1.5m-120.993.54c.679.684 1.486.991 1.793.683.308-.308-.247-.867-1.233-1.243-1.425-.542-1.54-.428-.56.56m126.905 4.376c.317.825.753 1.5.969 1.5.216 0 .393-.675.393-1.5s-.436-1.5-.969-1.5c-.532 0-.709.675-.393 1.5m-2.766 3.25c-1.243 1.586-1.208 1.621.378.378.963-.755 1.75-1.543 1.75-1.75 0-.823-.821-.294-2.128 1.372m-128.139 1.374c.679.684 1.486.991 1.793.683.308-.308-.247-.867-1.233-1.243-1.425-.542-1.54-.428-.56.56m125.023.453c-1.448 1.448.507 2.423 4.862 2.423 2.745 0 4.259.39 3.882 1-.34.55-.141 1 .441 1s1.059-.675 1.059-1.5c0-1.107-1.157-1.5-4.417-1.5-2.429 0-4.576-.478-4.77-1.062-.195-.585-.671-.747-1.057-.361m5.057 5.106c.721.289 1.584.253 1.916-.079.332-.332-.258-.568-1.312-.525-1.165.048-1.402.285-.604.604m-136 1c.721.289 1.584.253 1.916-.079.332-.332-.258-.568-1.312-.525-1.165.048-1.402.285-.604.604m4 1c.721.289 1.584.253 1.916-.079.332-.332-.258-.568-1.312-.525-1.165.048-1.402.285-.604.604M194 117.046c-1.095.741-.691.834 1.5.344 3.677-.823 4.475-1.395 1.917-1.375-1.054.009-2.592.472-3.417 1.031m6.564 1.247c.376.986.935 1.541 1.243 1.233.308-.307.001-1.114-.683-1.793-.988-.98-1.102-.865-.56.56m-141.314.396c.962.252 2.538.252 3.5 0 .962-.251.175-.457-1.75-.457s-2.712.206-1.75.457M192.158 121c0 1.375.227 1.938.504 1.25.278-.687.278-1.812 0-2.5-.277-.687-.504-.125-.504 1.25m-129.52 1.5c-.316.825-.139 1.5.393 1.5.533 0 .969-.675.969-1.5s-.177-1.5-.393-1.5c-.216 0-.652.675-.969 1.5m137.573 1.101c-.71.769-.849 1.399-.309 1.399 1.038 0 2.541-1.902 1.948-2.466-.192-.183-.93.297-1.639 1.067M54.75 129.662c.688.278 1.813.278 2.5 0 .688-.277.125-.504-1.25-.504s-1.937.227-1.25.504m8.329 1.921c.048 1.165.285 1.402.604.605.289-.722.253-1.585-.079-1.917-.332-.332-.568.258-.525 1.312m132.171 1.106c.963.252 2.537.252 3.5 0 .963-.251.175-.457-1.75-.457s-2.713.206-1.75.457M127 143c0 .55.45 1 1 1s1-.45 1-1-.45-1-1-1-1 .45-1 1m52 24.378c0 .207.787.995 1.75 1.75 1.586 1.243 1.621 1.208.378-.378-1.307-1.666-2.128-2.195-2.128-1.372m-83.376 15.161c-.965 2.514-.681 3.163.498 1.136.584-1.004.851-2.036.593-2.293-.257-.258-.749.263-1.091 1.157M156.5 184c.995 1.1 2.035 2 2.31 2 .275 0-.315-.9-1.31-2-.995-1.1-2.035-2-2.31-2-.275 0 .315.9 1.31 2m-26.421 2.583c.048 1.165.285 1.402.604.605.289-.722.253-1.585-.079-1.917-.332-.332-.568.258-.525 1.312m-15.515.71c.376.986.935 1.541 1.243 1.233.308-.307.001-1.114-.683-1.793-.988-.98-1.102-.865-.56.56m12.631 3.207c.02 1.65.244 2.204.498 1.231.254-.973.237-2.323-.037-3-.274-.677-.481.119-.461 1.769" fill="#1976D2" fill-rule="evenodd"/><path fill-opacity=".169" d="M117 10.559c-1.375.236-5.65.934-9.5 1.551-15.649 2.508-35.527 10.932-48.803 20.681-23.751 17.442-40.633 43.992-46.353 72.897-2.357 11.911-2.332 33.85.051 45.108 9.002 42.532 39.061 76.279 79.521 89.278 42.565 13.674 87.497 2.763 119.209-28.949 39.868-39.868 46.162-101.362 15.15-148.014-17.237-25.931-43.897-43.975-74.784-50.618-6.918-1.488-29.665-2.764-34.491-1.934m1.2 46.641c-2.901 2.901-.052 7.522 3.87 6.278 1.583-.503 2.038-.323 1.689.667-.275.781-1.664 1.266-3.278 1.145-1.948-.146-2.483.108-1.757.834.575.575 2.11.895 3.411.711 2.097-.297 2.399-.93 2.667-5.585.298-5.177.263-5.25-2.55-5.25-1.568 0-3.392.54-4.052 1.2m10.666.985c-.31 1.477-.196 3.277.254 4 1.114 1.79 5.222 1.665 6.06-.185 1.047-2.311.937-6-.18-6-.55 0-1 1.35-1 3s-.45 3-1 3-1.338.018-1.75.039c-.412.022-.991-1.441-1.285-3.25-.528-3.251-.541-3.258-1.099-.604m18.357-.628c-2.567 1.798-3.01 6.545-.783 8.393 1.902 1.579 6.786.949 7.358-.95.365-1.211.196-1.259-.873-.25-3.385 3.194-8.017-.059-6.093-4.28 1.491-3.274 5.855-3.408 7.137-.22.871 2.167.907 2.173.968.161.039-1.306-.892-2.525-2.484-3.25-3.115-1.42-2.581-1.46-5.23.396m-28.6.984c-.845 2.2.067 3.459 2.506 3.459 1.51 0 1.931-.557 1.691-2.24-.383-2.682-3.31-3.532-4.197-1.219m-10.966.166c-1.331.343-1.682 1.075-1.263 2.634.318 1.188.585 2.722.592 3.409.008.688.418 1.25.911 1.25.494 0 .832-1.415.75-3.143-.204-4.351 2.059-4.761 3.825-.694 1.466 3.375 2.006 2.224.898-1.913-.586-2.187-1.871-2.533-5.713-1.543M97.5 63c-2.116 2.339-1.087 2.73 1.19.452 2.14-2.139 3.021-.895.971 1.371-3.202 3.537-1.483 6.004 2.679 3.844l2.548-1.322-1.929-3.172C100.703 60.463 99.944 60.3 97.5 63m-9.115 2.75c.286.963.827 3.036 1.203 4.608.635 2.655.536 2.779-1.397 1.744-1.144-.612-2.356-1.56-2.694-2.107C84.87 68.98 81 68.573 81 69.521c0 1.107 5.319 8.494 5.782 8.031.269-.269-.247-1.613-1.147-2.986-2.347-3.582-2.033-3.986 1.269-1.634 3.85 2.741 5.498 2.677 4.705-.182-1.929-6.952-1.882-7.419.409-4 1.198 1.787 2.611 3.25 3.139 3.25 1.042 0 .553-1.014-2.531-5.25-2.253-3.095-5.06-3.757-4.241-1m72.365-.719c3.245 1.304 2.766 2.49-1 2.479-4.102-.013-4.417 2.534-.446 3.596 2.358.631 2.976.374 3.882-1.614 1.438-3.156.397-5.506-2.405-5.429l-2.281.064 2.25.904m-60.656 1.356c-.818.985-.86 1.639-.135 2.087.58.359 1.333-.07 1.672-.954.844-2.2-.084-2.884-1.537-1.133M158 69c0 .55.9 1 2 1s2-.45 2-1-.9-1-2-1-2 .45-2 1m8 3c-2.418 3.395-1.387 4.101 1.339.917.981-1.146 2.431-1.835 3.223-1.532.791.304 1.438.164 1.438-.309 0-.721-2.294-2.076-3.514-2.076-.192 0-1.311 1.35-2.486 3m7.155 3.604c-2.553 1.788-2.741 3.667-.584 5.825C174.354 83.212 176 83.486 176 82c0-.55-.648-1-1.441-1-1.806 0-2.89-1.656-2.013-3.075.429-.694 1.452-.336 2.884 1.009 2.363 2.22 3.57 1.86 3.57-1.065 0-2.8-3.272-4.067-5.845-2.265m2.107 2.086c.93.93 1.971 1.41 2.314 1.067.985-.984-.526-2.757-2.349-2.757-1.527 0-1.524.132.035 1.69M72.655 81.829c-2.066 2.283-2.086 3.597-.084 5.6 2.07 2.069 2.967 1.984 5.285-.504 1.432-1.538 2.131-1.755 2.698-.838.465.753-.124 1.956-1.506 3.075C77.8 90.173 77.246 91 77.818 91 79.298 91 82 88.104 82 86.517 82 85.169 76.51 80 75.078 80c-.422 0-1.513.823-2.423 1.829m.099 1.421c-.75 2.042.284 3.75 2.27 3.75 2.479 0 3.433-1.744 1.94-3.544-1.483-1.786-3.591-1.889-4.21-.206m109.701 5.205c-1.35 1.35-2.437 3.262-2.415 4.25.031 1.39.352 1.222 1.421-.744 1.491-2.739 4.559-4.638 8.539-5.283 1.704-.277 1.292-.449-1.295-.542-2.814-.101-4.431.499-6.25 2.319M66.015 91.75c.012 1.351.21 1.443.868.406.703-1.11 1.399-1.062 3.984.275 3.384 1.75 4.225 1.118 1.383-1.039-2.592-1.967-6.253-1.757-6.235.358m60.213 1.344c-1.25.472-2.536 1.544-2.857 2.382-.355.925-1.84 1.524-3.778 1.524-4.981 0-5.593 1.338-5.593 12.23v9.83l-2.958-2.187c-2.537-1.876-3.192-1.994-4.595-.829-1.426 1.183-1.593 3.571-1.292 18.482.329 16.335.46 17.293 2.845 20.794 2.804 4.117 6.704 6.312 13.461 7.574 4.964.927 6.485.127 3.855-2.031-.913-.75-3.383-4.02-5.489-7.268-3.889-6.001-4.719-10.06-2.792-13.661 1.948-3.639 9.448-1.752 8.907 2.242-.386 2.851.138 3.824 2.058 3.824s2.444-.973 2.058-3.824c-.541-3.994 6.959-5.881 8.907-2.242 1.927 3.601 1.097 7.66-2.792 13.661-2.106 3.248-4.576 6.518-5.489 7.268-2.585 2.121-1.14 2.956 3.544 2.05 2.35-.454 4.594-.845 4.987-.869.394-.024 2.373-1.499 4.399-3.278 6.149-5.399 6.7-7.781 7.183-31.061.397-19.149.285-20.956-1.41-22.83-1.257-1.389-2.723-1.906-4.614-1.628-2.346.344-2.773.052-2.773-1.897 0-2.609-4.246-5.934-6.108-4.783-.658.406-1.689.069-2.294-.751-1.853-2.513-4.921-3.646-7.37-2.722M66 96c1.375 1.076 3.175 1.956 4 1.956.992 0 .654-.662-1-1.956-1.375-1.076-3.175-1.956-4-1.956-.992 0-.654.662 1 1.956m123.847.018c-3.299 1.743-3.713 1.773-4.273.313-.342-.89-.846-1.392-1.121-1.117-.887.887.718 3.786 2.097 3.786 1.354 0 8.45-3.862 8.45-4.599 0-.776-1.536-.294-5.153 1.617m-64.18-.351c-.367.366-.667 7.791-.667 16.5 0 9.889-.375 15.833-1 15.833-.619 0-1-5.322-1-13.965 0-12.354-.205-14.074-1.776-14.915-1.126-.603-2.406-.598-3.5.014-1.523.853-1.724 2.882-1.724 17.416 0 10.3-.374 16.45-1 16.45-.55 0-1-2.189-1-4.865 0-5.205-2.768-10.135-5.69-10.135-1.347 0-1.491 2.08-1.122 16.25.495 18.984 1.402 21.753 8.128 24.807 6.547 2.972 6.922 2.379 2.662-4.212-4.682-7.244-5.407-13.416-1.978-16.845 2.393-2.393 6.715-2.588 9.777-.443 2.012 1.409 2.434 1.409 4.446 0 3.062-2.145 7.384-1.95 9.777.443 3.442 3.442 2.705 9.599-2.027 16.921-3.666 5.672-3.823 6.172-1.75 5.573 3.132-.906 6.77-3.604 9.141-6.78 2.592-3.471 3.139-8.602 3.138-29.41-.002-18.216-.633-20.97-4.28-18.675-1.421.895-1.772 2.942-2.006 11.727-.424 15.916-2.216 13.231-2.216-3.321 0-12.435-.198-14.07-1.804-14.93-3.542-1.895-4.127-.015-4.416 14.189-.398 19.477-2.209 17.852-2.555-2.292-.274-15.969-.279-16.002-2.583-16.002-1.27 0-2.609.3-2.975.667m-65.052 5.893c-.374.976-.216 2.239.352 2.807.711.711 1.033.346 1.033-1.167 0-1.21.45-2.2 1-2.2s1 1.35 1 3c0 3.821 2.647 4.057 4.053.361 1.209-3.181 1.114-3.297-3.281-4.011-2.736-.444-3.621-.186-4.157 1.21m130.635-.313c-1.787.573-3.25 1.416-3.25 1.873 0 .457 1.154.392 2.565-.145 4.41-1.676 5.063-1.053 1.685 1.609-1.787 1.408-3.25 2.978-3.25 3.488 0 .511 2.137.961 4.75 1.002l4.75.074-4 1.852c-4.37 2.023-2.702 2.664 2.351.902 4.926-1.717 4.04-3.896-1.601-3.936l-4.75-.033 3.75-3.064c5.706-4.661 4.559-6.047-3-3.622M65 104c0 1.1.45 2 1 2s1-.9 1-2-.45-2-1-2-1 .9-1 2m-6.639 6.75c.182 2.292 1.567 3.234 4.639 3.156l2.5-.064-2.75-1.004c-1.513-.553-2.75-1.642-2.75-2.421 0-.779-.4-1.417-.889-1.417s-.826.787-.75 1.75M193.2 117.2c-1.686 1.686-1.494 6.311.324 7.82.838.696 1.847.942 2.242.547.394-.394-.066-1.156-1.024-1.692-2.548-1.425-2.149-4.732.728-6.043 1.889-.861 2.831-.827 4 .143 1.732 1.437 2.035 4.595.53 5.525-.55.34-1 1.097-1 1.681 0 .671.554.604 1.5-.181 1.798-1.492 1.976-6.124.3-7.8-1.547-1.547-6.053-1.547-7.6 0m-136.2.627c0 .572 1.234 1.183 2.741 1.357 1.609.185 2.874 1.013 3.061 2.002.246 1.297-.558 1.767-3.491 2.037-3.694.34-3.727.376-1.063 1.172 3.97 1.186 5.752.144 5.752-3.364 0-2.321-.449-3.031-1.918-3.031-1.055 0-2.63-.273-3.5-.607-.87-.334-1.582-.139-1.582.434m-2 11.147c-1.105.733-.269.999 3.177 1.011 3.585.011 4.795.423 5.184 1.765.294 1.011.43.694.324-.75-.155-2.099-.747-2.542-3.685-2.761-1.925-.144-4.175.187-5 .735m135.861 1.977c2.858 2.481 8.928 2.724 11.698.467 1.913-1.559 1.913-1.571-.059-.858-4.324 1.563-7.378 1.559-10.618-.015l-3.382-1.644 2.361 2.05M77.015 166.485c-1.858 1.917-3.136 3.728-2.839 4.024.296.297 1.121-.162 1.832-1.018 1.154-1.392 1.564-1.314 3.841.726l2.55 2.283-1.793-2.857c-2.611-4.163-.573-5.845 3.131-2.583 2.687 2.366 2.683 2.344-.174-.814-1.615-1.785-2.99-3.246-3.054-3.246-.064 0-1.637 1.568-3.494 3.485m97.173 1.143c-.623 1.114-1.132 1.272-1.609.5-.383-.62-1.212-1.128-1.841-1.128s.606 1.792 2.744 3.982c4.055 4.153 6.51 4.767 2.655.664-1.966-2.093-2.037-2.484-.652-3.634 1.282-1.063 1.868-1.002 3.362.35 2.56 2.317 3.826 2.039 1.653-.362-2.19-2.42-5.071-2.589-6.312-.372m-91.165 6.349c-2.508 2.508-2.522 3.261-.106 5.448 2.145 1.941 5.337.96 6.469-1.987.749-1.953.132-3.091-2.419-4.456-1.501-.803-2.363-.586-3.944.995m85.177-.777c-.66.66-1.186 1.673-1.17 2.25.017.578.489.263 1.05-.7s1.672-1.75 2.47-1.75c1.878 0 1.835.918-.148 3.108-.879.971-1.302 2.244-.941 2.829.803 1.3 3.216 1.395 3.981.156.309-.498-.34-.671-1.441-.383-2.312.605-2.654-.923-.59-2.636.965-.801 1.616-.839 2.059-.123.356.577 1.15 1.049 1.763 1.049.614 0 .059-1.125-1.233-2.5-2.606-2.774-4.011-3.089-5.8-1.3m-84.078 1.078c-1.419 1.419-1.453 4.4-.059 5.261 1.444.893 4.928-2.399 4.292-4.056-.727-1.896-2.919-2.519-4.233-1.205m6.582 5.05c-2.334 3.564-2.142 4.519.368 1.825 1.139-1.223 1.906-2.719 1.704-3.325-.202-.605-1.134.07-2.072 1.5m74.797.485.474 3.313-2.737-2.163-2.738-2.163-.317 3.712-.317 3.711-2.683-2.362-2.683-2.361 2.424 2.75c3.288 3.729 4.843 3.547 4.267-.5-.451-3.167-.413-3.205 1.502-1.5 3.763 3.352 5.089 2.015 3.221-3.25-.769-2.168-.824-2.06-.413.813m-69.838 2.937c-1.386 2.745-1.23 5.25.327 5.25.452 0 .599-.854.326-1.898-.272-1.044.01-2.844.629-4 .619-1.156.896-2.102.616-2.102s-1.134 1.238-1.898 2.75m4.937 2.35c-.885 1.774-1.415 3.418-1.178 3.655.237.237 1.172-1.003 2.078-2.755.906-1.752 1.436-3.397 1.178-3.655s-1.193.981-2.078 2.755m37.54-.6c.008 1.1.631 3.8 1.385 6 1.023 2.985 1.356 3.365 1.312 1.5-.104-4.454.132-5 2.163-5 1.454 0 2 .667 2 2.441 0 1.343.468 2.73 1.04 3.084.682.421.807-.333.362-2.191-1.029-4.301-2.271-5.474-4.523-4.269-1.567.838-2.077.609-2.832-1.271-.82-2.044-.919-2.076-.907-.294m14.902.578c.612 1.143.866 2.718.566 3.5-.891 2.323-3.582 1.62-4.661-1.217-.552-1.451-1.232-2.409-1.512-2.129-.281.28.029 1.693.688 3.139 1.198 2.629 4.203 3.529 5.387 1.613.346-.559 1.124-.71 1.729-.336.745.46.847.061.317-1.234a43.866 43.866 0 0 1-1.286-3.664c-.277-.963-.917-1.75-1.422-1.75-.505 0-.418.935.194 2.078m-49.056.172c-.007.688-.263 2.375-.568 3.75-.405 1.823-.299 2.094.392 1 1.685-2.666 2.383-6 1.257-6-.587 0-1.073.563-1.081 1.25m3.894-.345c.877.555 1.213 2.006.923 3.984-.558 3.8-.086 3.986 1.243.489 1.043-2.742-.153-5.393-2.418-5.363-.651.009-.545.385.252.89m22.326 2.595c-.066 4.036 1.574 9.984 1.724 6.25.087-2.185.905-2.209 3.241-.095 1.006.91 1.829 1.19 1.829.622 0-.567-.694-1.608-1.542-2.312-1.07-.888-1.224-1.599-.5-2.323.573-.573 1.027-1.515 1.009-2.092-.019-.578-.915.008-1.993 1.301-2.068 2.482-2.465 2.138-3.289-2.851-.25-1.517-.439-.928-.479 1.5m-16.321-.592c1.094.693 1.157 1.531.302 3.985-.596 1.709-.713 3.107-.26 3.107 1.02 0 2.269-5.874 1.51-7.103-.305-.493-1.091-.89-1.746-.882-.778.01-.711.319.194.893m7.496 3.592c.113 3.8.282 4.005 3.369 4.1 3.104.096 3.245-.062 3.132-3.5-.118-3.573-.123-3.577-.757-.6-.439 2.067-1.316 3.097-2.817 3.311-1.854.265-2.245-.258-2.613-3.5l-.433-3.811.119 4" fill="#1976D2" fill-rule="evenodd"/><path fill-opacity=".224" d="M104.785 12.978c-47.227 9.959-82.118 44.951-91.82 92.088-2.82 13.706-2.377 37.722.938 50.797 11.431 45.083 47.998 79.588 92.976 87.733 12.17 2.203 33.147 1.996 44.621-.441 87.958-18.682 123.745-123.477 65.518-191.853-16.6-19.494-39.702-32.939-65.701-38.237-13.256-2.702-33.947-2.74-46.532-.087m10.276 24.041C102.276 38.808 87.195 44.715 76 52.32c-6.641 4.511-17.612 15.327-22.572 22.252-26.468 36.952-21.675 88.043 11.21 119.489 11.935 11.412 24.133 18.292 40.159 22.65 8.137 2.212 11.801 2.64 22.703 2.651 15.476.016 26.22-2.26 39.05-8.273 10.592-4.963 16.27-8.86 24.812-17.028 12.71-12.155 21.552-27.461 25.81-44.684 3.036-12.28 3.025-30.279-.025-42.754-2.59-10.594-8.449-23.498-14.514-31.967-5.096-7.114-15.976-17.809-22.96-22.568-7.153-4.875-20.574-10.889-29.258-13.11-8.95-2.289-26.174-3.243-35.354-1.959M111 41.522c-41.441 8.504-71 44.467-71 86.382 0 40.217 25.912 73.862 65.711 85.324 6.593 1.898 10.092 2.232 22.789 2.174 13.345-.061 15.993-.369 24-2.794C190.52 201.094 216 167.144 216 128c0-42.807-30.921-79.419-73.434-86.949-7.94-1.406-23.553-1.174-31.566.471m9.5 14.408c-2.509.484-3.051 1.112-3.314 3.837-.284 2.943-.013 3.318 2.812 3.883 2.126.425 2.8.952 2.107 1.645-.694.694-1.486.634-2.474-.186-.932-.774-1.674-.848-2.07-.208-.877 1.419 2.94 3.223 5.117 2.418 2.762-1.021 3.315-2.438 2.662-6.819-.737-4.947-1.102-5.291-4.84-4.57m7.918.422c-.312.814-.421 2.755-.243 4.314.289 2.518.743 2.851 4.075 2.984 3.718.149 3.75.117 3.75-3.75 0-4.428-1.702-5.331-2.184-1.159-.201 1.745-1.005 2.873-2.211 3.102-1.625.308-1.808-.077-1.283-2.703.633-3.165-.898-5.408-1.904-2.788m18.767.332c-1.739.696-3.377 5.136-2.691 7.296 1.196 3.769 8.58 4.876 9.882 1.482.643-1.676-1.462-1.976-3.009-.429-2.628 2.628-5.348-1.314-3.76-5.451.872-2.272 4.477-1.977 5.103.418.598 2.285 3.29 2.741 3.29.557 0-2.937-5.316-5.273-8.815-3.873M108.5 58.178c-1.1.614-2.142 1.23-2.314 1.367-.173.138-.011 1.872.361 3.853.814 4.342 2.867 4.877 2.237.583-.261-1.776.099-3.469.875-4.113 1.308-1.085 1.502-.826 2.906 3.882.205.688.845 1.25 1.423 1.25 1.192 0 .309-4.772-1.248-6.75-1.187-1.507-1.657-1.515-4.24-.072m11.098-.442C118.163 59.17 119.093 62 121 62c1.296 0 2-.667 2-1.893 0-1.899-2.283-3.491-3.402-2.371M97.2 62.2c-1.404 1.404-1.598 3.8-.307 3.8.491 0 1.152-.675 1.469-1.5.316-.825 1.118-1.5 1.781-1.5.663 0 .18 1.092-1.073 2.426-3.593 3.824-.078 6.412 4.251 3.13 1.7-1.289 1.715-1.585.224-4.468-1.652-3.196-4.261-3.972-6.345-1.888m-8.834 2.287c-.314.819-.074 2.911.532 4.65C89.504 70.876 90 72.479 90 72.7c0 .221-1.556-.785-3.457-2.235-3.344-2.551-5.572-2.614-5.516-.156.041 1.83 5.722 8.276 6.557 7.441.405-.406-.01-1.563-.923-2.573-2.546-2.812-1.974-3.568.957-1.263 3.39 2.667 4.729 1.752 3.9-2.667l-.661-3.524 2.54 2.888c3.338 3.796 3.318 1.427-.03-3.632-2.809-4.245-4.084-4.88-5.001-2.492M158.5 64c-.34.55-.28 1 .132 1 .413 0-.123.649-1.191 1.441-2.308 1.714-1.198 4.365 2.384 5.69 1.912.707 2.471.317 3.932-2.748 1.634-3.427 1.626-3.63-.218-4.978-2.257-1.65-4.174-1.804-5.039-.405m-57.833 1.667c-.367.366-.667 1.131-.667 1.7 0 .626.466.567 1.183-.15.651-.651.951-1.416.667-1.7-.284-.284-.817-.217-1.183.15M160 66c0 .55.702 1 1.559 1s1.281-.45.941-1c-.34-.55-1.041-1-1.559-1s-.941.45-.941 1m-2 3c0 .55.675 1 1.5 1s1.5-.45 1.5-1-.675-1-1.5-1-1.5.45-1.5 1m8.1 2.079c-2.556 3.456-2.089 5.126.723 2.582 1.009-.914 2.587-1.661 3.506-1.661 2.046 0 2.113-.701.242-2.571-1.886-1.887-1.845-1.902-4.471 1.65m6.65 4.001c-3.207 1.868-1.615 7.92 2.083 7.92 1.406 0 5.167-3.638 5.167-4.998 0-.988-3.481-4.008-4.579-3.972-.506.017-1.708.489-2.671 1.05M117 77.563c-13.295 2.871-26.697 12.418-33.337 23.749-18.059 30.815-.938 69.866 33.837 77.181 8.741 1.839 12.244 1.844 20.787.034 18.353-3.889 32.752-16.622 38.521-34.065 9.781-29.572-7.955-60.57-38.308-66.955-8.507-1.789-13.01-1.778-21.5.056m59.02-.039c.696.838 1.471 1.318 1.723 1.067.693-.694-.716-2.591-1.924-2.591-.664 0-.588.574.201 1.524M173 79.5c0 .825.73 1.5 1.622 1.5 1.329 0 1.398-.271.378-1.5-.685-.825-1.415-1.5-1.622-1.5-.208 0-.378.675-.378 1.5M72.669 80.97c-2.362 2.389-1.807 6.25 1.081 7.517 1.237.543 2.25 1.331 2.25 1.75 0 1.205 3.475.888 4.8-.437 2.144-2.144 1.282-5.234-2.247-8.05-4.007-3.197-3.552-3.137-5.884-.78m.711 2.482c-.697 1.815.315 3.548 2.072 3.548 1.825 0 2.644-2.504 1.27-3.878-1.523-1.523-2.674-1.41-3.342.33m4.824 3.593c-.773 1.238-.839 1.955-.181 1.955.572 0 1.306-.694 1.632-1.543.9-2.346-.072-2.621-1.451-.412m107.184-1.065C181.47 87.563 177.028 95 180 95c.55 0 1-.597 1-1.326 0-2.109 4.307-5.585 7.782-6.28 1.752-.351 2.941-1.033 2.643-1.516-.667-1.078-3.222-1.035-6.037.102M66.245 90.25c-2.527 3.159-2.255 5.226.928 7.043 1.763 1.007 3.519 1.415 4.004.93.485-.485-.242-1.455-1.657-2.212-1.386-.742-2.52-2-2.52-2.797 0-1.421 1.285-1.353 5.25.28 2.993 1.231 1.954-1.337-1.2-2.968-3.561-1.841-3.553-1.841-4.805-.276m123.438 5.357c-2.225 1.206-3.123 1.273-4.274.317-2.111-1.752-2.612-.659-.85 1.856l1.512 2.159 4.465-2.169c4.314-2.096 5.793-3.813 3.214-3.73-.687.022-2.518.727-4.067 1.567M61.04 100.452c-1.197 1.442-1.09 5.506.119 4.548.347-.275 1.589.367 2.76 1.426 2.453 2.221 3.889 1.361 4.64-2.779.396-2.183.007-2.862-2.102-3.663-3.416-1.299-3.992-1.249-5.417.468m130.71.21c-5.429 1.662-6.576 3.935-1.5 2.971l3.25-.618-2.406 1.865c-3.055 2.367-2.204 5.09 1.625 5.199l2.781.079-2.75 1.004c-2.536.927-3.835 2.838-1.928 2.838 2.502 0 10.214-3.391 9.895-4.35-.208-.622-2.128-1.622-4.268-2.223l-3.891-1.091 2.721-1.783c1.497-.981 2.721-2.631 2.721-3.668 0-2.161.073-2.158-6.25-.223m-129.083 1.005c-.367.366-.667 1.131-.667 1.7 0 .626.466.567 1.183-.15.651-.651.951-1.416.667-1.7-.284-.284-.817-.217-1.183.15M65 103.441c0 .857.45 1.559 1 1.559s1-.423 1-.941-.45-1.219-1-1.559c-.55-.34-1 .084-1 .941m-7.249 7.083c-.559 2.92-.475 2.992 4.499 3.89 4.512.814 5.037-.77.75-2.264-1.65-.575-3-1.744-3-2.598 0-2.518-1.725-1.772-2.249.972m136.529 5.505c-4.457 1.775-3.682 9.971.944 9.971h2.153l-2.188-2.039c-1.204-1.121-2.182-2.359-2.174-2.75.044-2.041 1.999-3.337 4.585-3.041 3.451.395 4.501 3.552 1.832 5.504-.982.718-1.46 1.632-1.061 2.03 1.222 1.223 4.112-1.265 4.421-3.806.55-4.509-4.018-7.658-8.512-5.869M56 117.736c0 .468 1.462 1.281 3.25 1.807s3.25 1.407 3.25 1.957-1.462 1.141-3.25 1.313c-4.574.441-4.06 2.187.643 2.187 4.118 0 4.951-.898 4.64-5-.165-2.181-.72-2.539-4.361-2.807-2.295-.17-4.172.075-4.172.543M53 129c0 .55 2.025 1 4.5 1 3.251 0 4.5.4 4.5 1.441 0 .793.45 1.719 1 2.059.583.361 1-.656 1-2.441 0-3.041-.032-3.059-5.5-3.059-3.025 0-5.5.45-5.5 1m138.425 2.515c2.37 2.18 3.572 2.585 6.339 2.136 3.606-.585 6.236-2.228 6.236-3.896 0-.565-.642-.467-1.476.225-1.508 1.252-8.262 1.028-12.024-.398-1.462-.554-1.214-.035.925 1.933M76.523 166.478c-2.187 1.871-3.652 3.726-3.256 4.123.397.396 1.55-.031 2.565-.949 1.728-1.564 1.958-1.542 3.666.346 1.003 1.108 2.048 1.789 2.323 1.514.275-.275-.327-1.413-1.337-2.529-1.224-1.354-1.503-2.364-.837-3.03.667-.667 1.611-.326 2.832 1.023 2.815 3.111 3.924 2.399 1.521-.976-1.175-1.65-2.443-2.983-2.818-2.962-.375.02-2.471 1.568-4.659 3.44m98.277.471c-.917 1.467-1.543 1.679-2.533.858-.723-.601-1.521-.886-1.773-.635-.251.252 1.326 2.199 3.506 4.328 2.18 2.129 4.234 3.599 4.565 3.268.331-.331-.336-1.539-1.482-2.685-3.849-3.849-1.47-6.735 2.487-3.017 1.332 1.251 2.761 1.933 3.176 1.515.725-.731-4.467-5.566-5.988-5.576-.407-.003-1.289.872-1.958 1.944m-6.11 5.205c-1.739.973-2.384 4.846-.807 4.846.486 0 1.119.9 1.407 2 .655 2.506 1.8 2.524 4.627.072 2.108-1.829 2.139-2.057.593-4.416-1.997-3.048-3.608-3.74-5.82-2.502m-86.035 1.675c-3.288 3.633-.859 7.941 3.817 6.767 3.345-.839 4.581-5.353 1.984-7.252-2.471-1.807-3.83-1.693-5.801.485m87.012-.162c-.367.366-.667 1.131-.667 1.7 0 .626.466.567 1.183-.15.651-.651.951-1.416.667-1.7-.284-.285-.817-.217-1.183.15m-86.303 1.826c-.346.903-.15 2.121.436 2.707 1.524 1.524 4.41.131 4.012-1.935-.443-2.302-3.647-2.858-4.448-.772m88.365.111c-.401.401-.729 1.419-.729 2.263 0 1.125.296 1.237 1.113.421.611-.612.94-1.631.729-2.263-.211-.632-.712-.822-1.113-.421m-7.192 3.646.696 3.25-2.511-2.325c-2.883-2.67-4.119-1.666-3.112 2.529l.672 2.796-2.391-2.076c-3.533-3.067-5.865-2.117-5.603 2.283.268 4.514-1.719 5.365-3.122 1.338-.584-1.675-1.31-3.045-1.614-3.045-1.238 0-.434 3.924 1.223 5.97 1.578 1.949 2.077 2.054 4.5.951 3.048-1.389 3.143-1.692 1.712-5.456l-1.014-2.665 3.098 2.607c3.699 3.112 5.357 2.483 4.518-1.714l-.613-3.064 2.326 2.185c1.28 1.202 2.635 2.186 3.012 2.186.841 0 .872-3.705.056-6.75-.958-3.573-2.618-2.667-1.833 1m-74.818.884c-2.075 3.654-1.222 5.439 1.012 2.116.832-1.238 2.358-2.25 3.391-2.25S96 179.55 96 179s-.413-1-.918-1c-.505 0-1.518-.226-2.25-.502-.77-.289-2.084.824-3.113 2.636m5.755 2.068c-1.972 4.059-1.229 6.106 2.579 7.102 1.457.381 2.381-.244 3.467-2.343 2.158-4.172 1.751-5.909-.635-2.711-3.308 4.434-6.344 3.345-3.82-1.371.586-1.095.872-2.527.636-3.184-.235-.657-1.238.471-2.227 2.507m7.863 4.829c-1.211 4.539-.082 5.296 1.858 1.247 1.756-3.663 3.373-2.981 3.012 1.27-.36 4.238 1.315 4.591 2.143.452.377-1.884 1.216-3 2.256-3 1.334 0 1.545.68 1.088 3.5-.638 3.931.933 4.835 1.876 1.079.927-3.696.115-6.075-2.089-6.116-1.091-.021-2.433-.296-2.982-.612-.55-.316-2.147-.848-3.551-1.182-2.301-.548-2.655-.218-3.611 3.362m35.123.577c.402 2.69 1.124 5.567 1.605 6.392.918 1.575 1.021 1.299 1.277-3.412.22-4.047 2.522-4.519 3.291-.674.339 1.697 1.011 3.086 1.492 3.086 1.152 0 1.11-2.252-.1-5.435-1.027-2.701-4.463-3.544-5.363-1.315-.31.77-.534.6-.583-.441-.043-.93-.59-2.007-1.214-2.392-.823-.509-.934.641-.405 4.191m-8.553-2.917c-.347 3.032.408 9.974 1.17 10.759.572.589.923.114.923-1.25 0-2.554 1.224-2.84 3-.7.685.825 1.71 1.5 2.277 1.5.568 0 .196-.925-.828-2.056-1.538-1.699-1.65-2.393-.646-4 1.486-2.379.495-2.524-1.974-.289-1.727 1.563-1.829 1.511-1.829-.941 0-2.323-1.864-5.016-2.093-3.023M121 191c0 2.2.338 4.058.75 4.129 5.281.908 6.077.487 6.448-3.408.461-4.838-.839-5.885-1.956-1.575-1.193 4.604-3.242 4.88-3.242.437 0-1.97-.45-3.583-1-3.583s-1 1.8-1 4" fill="#1976D2" fill-rule="evenodd"/></svg>